<svg width="77" height="104" viewBox="0 0 77 104" fill="none" xmlns="http://www.w3.org/2000/svg">
<path d="M24.8307 80.3964C24.8307 80.3964 20.8608 82.7034 27.6559 83.4841C35.8879 84.4226 40.0952 84.288 49.1669 82.5722C49.1669 82.5722 51.5519 84.0667 54.8828 85.3611C34.5464 94.071 8.85752 84.8566 24.8307 80.3964Z" fill="#CECECE"/>
<path d="M22.3457 69.0305C22.3457 69.0305 17.8931 72.3241 24.6932 73.027C33.4869 73.9336 40.4314 74.0077 52.4482 71.6954C52.4482 71.6954 54.1103 73.3793 56.7238 74.3001C32.1359 81.4851 4.74933 74.8668 22.3457 69.0305Z" fill="#CECECE"/>
<path d="M43.295 49.7501C48.3059 55.5153 41.9784 60.7033 41.9784 60.7033C41.9784 60.7033 54.7019 54.1395 48.8586 45.92C43.4011 38.2549 39.216 34.4464 61.8727 21.3151C61.8727 21.3151 26.3091 30.1913 43.295 49.7501Z" fill="#CECECE"/>
<path d="M70.1915 88.8033C70.1915 88.8033 73.1293 91.2222 66.9561 93.0936C55.2177 96.6472 18.0995 97.7203 7.78819 93.2352C4.08155 91.6238 11.0325 89.3875 13.2191 88.9183C15.4994 88.4241 16.8025 88.5162 16.8025 88.5162C12.6803 85.6143 -9.84145 94.2143 5.36255 96.6772C46.8261 103.397 80.9466 93.6513 70.1915 88.8033Z" fill="#CECECE"/>
<path d="M26.7397 57.2541C26.7397 57.2541 7.85904 61.7355 20.0536 63.3629C25.2025 64.0518 35.4668 63.8959 45.0276 63.0954C52.8413 62.4367 60.6872 61.0363 60.6872 61.0363C60.6872 61.0363 57.932 62.2154 55.9387 63.5755C36.7657 68.6147 -0.273002 66.2704 10.39 61.116C19.4076 56.7599 26.7397 57.2541 26.7397 57.2541Z" fill="#CECECE"/>
<path d="M60.6093 76.1732C80.0996 66.0521 71.0881 56.3259 64.7981 57.6363C63.2565 57.9569 62.5691 58.2348 62.5691 58.2348C62.5691 58.2348 63.1414 57.3388 64.2345 56.951C76.678 52.5793 86.2478 69.845 60.2176 76.6833C60.2176 76.6835 60.5192 76.4141 60.6093 76.1732Z" fill="#CECECE"/>
<path d="M48.8586 0.111648C48.8586 0.111648 59.6526 10.902 38.621 27.4945C21.7557 40.8045 34.7752 48.3936 38.614 57.0643C28.7694 48.1882 21.5449 40.3745 26.3917 33.1022C33.5056 22.4271 53.2137 17.2515 48.8586 0.111648Z" fill="#CECECE"/>
<path d="M28.6549 103.599C47.3631 104.796 76.0916 102.935 76.772 94.0886C76.772 94.0886 75.4642 97.4422 61.3107 100.105C45.3429 103.108 25.6488 102.758 13.968 100.833C13.9683 100.833 16.3592 102.811 28.6549 103.599Z" fill="#CECECE"/>
</svg>
