<svg width="201" height="57" viewBox="0 0 201 57" fill="none" xmlns="http://www.w3.org/2000/svg">
<g clip-path="url(#clip0)">
<path fill-rule="evenodd" clip-rule="evenodd" d="M187.147 23.6062C186.967 23.6421 186.785 24.0383 186.785 24.2542C186.749 25.6953 186.713 29.5138 186.713 32.1072C186.713 32.1795 186.821 32.3235 186.93 32.3235C187.473 32.3594 188.778 32.3953 189.901 32.3953C191.458 32.3953 192.364 32.1795 192.872 31.9636C194.175 31.3148 194.791 29.91 194.791 28.3607C194.791 24.867 192.328 23.534 188.669 23.534C188.415 23.4981 187.691 23.4981 187.147 23.6062ZM196.494 39.7082C196.494 36.1419 193.85 34.1605 189.068 34.1605C188.85 34.1605 187.329 34.1246 186.966 34.1964C186.857 34.2327 186.713 34.3049 186.713 34.413C186.713 36.9702 186.676 41.0412 186.785 42.626C186.857 43.3103 187.365 44.2831 187.981 44.5712C188.633 44.9314 190.118 45.0033 191.133 45.0033C193.994 45.0033 196.494 43.4184 196.494 39.7082ZM179.757 21.6251C180.119 21.6251 181.206 21.7329 183.996 21.7329C186.64 21.7329 188.741 21.6611 191.314 21.6611C194.465 21.6611 198.813 22.7775 198.813 27.4605C198.813 29.7659 197.182 31.6033 195.045 32.5038C194.937 32.5398 194.937 32.6116 195.045 32.6475C198.088 33.4044 200.769 35.2773 200.769 38.8072C200.769 42.2657 198.595 44.463 195.443 45.832C193.523 46.6603 191.133 46.9484 188.705 46.9484C186.857 46.9484 181.894 46.7325 179.141 46.8047C178.852 46.6962 179.395 45.3995 179.648 45.1836C180.301 45.1473 180.807 45.1114 181.496 44.8951C182.474 44.6434 182.583 44.3549 182.727 42.8782C182.8 41.6174 182.8 37.1502 182.8 33.9805C182.8 29.6219 182.837 26.6681 182.8 25.2273C182.764 24.1109 182.366 23.7502 181.569 23.534C180.952 23.4262 179.938 23.2818 179.105 23.1741C178.923 22.9937 179.539 21.7688 179.757 21.6251ZM158.853 44.0309C159.723 44.7148 161.426 45.0029 162.947 45.0029C164.904 45.0029 166.86 44.6434 168.744 42.9496C170.664 41.2212 172.004 38.5555 172.004 34.3049C172.004 30.234 170.446 26.9199 167.258 24.9751C165.447 23.858 163.128 23.3903 160.447 23.3903C159.651 23.3903 158.89 23.4262 158.419 23.6421C158.31 23.7143 158.057 24.0383 158.057 24.2182C157.984 24.9388 157.984 30.4861 157.984 33.7284C157.984 37.0784 157.984 41.7614 158.057 42.3017C158.057 42.8423 158.31 43.6706 158.854 44.0309H158.853ZM150.629 21.6248C151.318 21.6248 153.962 21.7329 155.231 21.7329C157.513 21.7329 159.143 21.6251 163.454 21.6251C167.077 21.6251 170.12 22.5975 172.294 24.4345C174.938 26.704 176.316 29.8381 176.316 33.6562C176.316 39.0957 173.816 42.2298 171.316 44.0309C168.816 45.8679 165.556 46.9484 160.919 46.9484C158.455 46.9484 154.216 46.8766 150.702 46.8403H150.666C150.485 46.5163 150.956 45.2554 151.245 45.2195C152.188 45.1114 152.441 45.0751 152.912 44.8955C153.673 44.6071 153.818 44.2109 153.927 42.8782C154.035 40.3924 153.999 37.4027 153.999 34.0165C153.999 31.6033 154.035 26.884 153.962 25.371C153.854 24.1105 153.311 23.7861 152.224 23.5699C151.68 23.4621 150.956 23.3177 149.942 23.21C149.796 22.9574 150.449 21.841 150.629 21.6251V21.6248Z" fill="#8E714E"/>
<path fill-rule="evenodd" clip-rule="evenodd" d="M106.794 45.4354C105.889 45.3273 105.236 45.1836 104.44 44.8233C104.331 44.7511 104.149 44.3912 104.149 44.2468C104.077 42.9859 104.077 39.3838 104.077 36.9706C104.077 35.0251 103.751 33.3322 102.918 32.1436C101.94 30.7742 100.527 29.9822 98.7153 29.9822C97.1215 29.9822 94.9839 31.0627 93.2087 32.5757C93.1725 32.6116 92.8828 32.8641 92.9189 32.4675C92.9189 32.0713 92.9916 31.2789 93.0277 30.7383C93.0642 30.234 92.7741 29.9822 92.7741 29.9822C91.6148 30.5583 88.3544 31.3148 87.1586 31.4226C86.2895 31.6033 86.072 32.4316 86.978 32.7197H87.0142C87.9917 33.0078 88.6441 33.3322 89.151 33.6566C89.5133 33.9446 89.4772 34.3408 89.4772 34.6652C89.5133 37.3664 89.5133 41.5092 89.405 43.7787C89.3689 44.6793 89.1152 45.0033 88.4628 45.1473L88.5354 45.1114C88.0282 45.2195 87.6297 45.3273 87.0138 45.3995C86.7963 45.6157 86.7963 46.7684 87.0138 47.0206C87.4122 47.0206 89.5133 46.9125 91.2528 46.9125C93.6436 46.9125 94.8755 47.0206 95.4911 47.0206C95.7447 46.7325 95.8173 45.6516 95.6725 45.3995C94.9839 45.3636 94.4767 45.2917 94.006 45.1473C93.3539 45.0029 93.1725 44.6793 93.136 43.9228C93.0642 42.0132 93.0642 37.9789 93.0642 35.2414C93.0642 34.4849 93.2813 34.1246 93.4984 33.9083C94.3318 33.1881 95.6725 32.6838 96.8679 32.6838C98.0272 32.6838 98.7876 33.0441 99.3674 33.5125C100.164 34.1605 100.418 35.0973 100.527 35.7816C100.708 37.3305 100.635 40.3924 100.635 43.0582C100.635 44.4989 100.527 44.8592 99.9838 45.0392C99.7298 45.1473 99.0777 45.2917 98.3169 45.3632C98.0633 45.6157 98.1359 46.7325 98.3169 46.9847C99.3674 46.9847 100.599 46.8766 102.411 46.8766C104.657 46.8766 106.106 46.9847 106.686 46.9847C106.866 46.7684 106.939 45.7239 106.794 45.4354ZM116.829 31.6755C114.91 31.6755 113.714 33.1522 113.714 35.4572C113.714 37.799 114.764 40.5006 117.735 40.5006C118.242 40.5006 119.184 40.2843 119.619 39.78C120.307 39.132 120.778 37.8349 120.778 36.4659C120.778 33.4762 119.293 31.6751 116.829 31.6751V31.6755ZM116.576 47.5968C115.851 47.5968 115.344 47.813 115.018 47.9934C113.496 48.9653 112.808 49.9022 112.808 51.0194C112.808 52.0636 113.207 52.8919 114.076 53.6125C115.127 54.513 116.576 54.9455 118.423 54.9455C122.118 54.9455 123.749 52.9641 123.749 51.0194C123.749 49.65 123.06 48.7495 121.648 48.2455C120.633 47.813 118.786 47.5968 116.576 47.5968ZM116.829 56.9629C114.619 56.9629 113.025 56.4944 111.649 55.4498C110.308 54.4412 109.729 52.9282 109.729 51.8836C109.729 51.5955 109.801 50.8027 110.453 50.0825C110.852 49.65 111.721 48.8217 113.786 47.4168C113.859 47.3809 113.895 47.345 113.895 47.2724C113.895 47.2006 113.822 47.1283 113.75 47.0928C112.047 46.4445 111.54 45.3995 111.395 44.8233V44.7511C111.359 44.5349 111.286 44.319 111.613 44.1027C111.866 43.9228 112.229 43.7065 112.627 43.4548C113.243 43.0941 113.895 42.6979 114.293 42.3735C114.366 42.3017 114.366 42.2298 114.366 42.1576C114.366 42.0854 114.293 42.0132 114.221 41.9777C111.685 41.149 110.417 39.2757 110.417 36.4659C110.417 34.6289 111.25 32.9719 112.735 31.9273C113.75 31.1349 116.286 30.1621 117.952 30.1621H118.061C119.764 30.198 120.706 30.5583 122.046 31.0268C122.771 31.2789 123.459 31.3867 124.401 31.3867C125.814 31.3867 126.43 30.9545 126.937 30.4506C126.973 30.5224 127.046 30.7028 127.082 31.1708C127.118 31.6392 126.973 32.3235 126.611 32.8278C126.321 33.224 125.669 33.5125 125.017 33.5125H124.836C124.183 33.4403 123.893 33.3681 123.893 33.3681L123.749 33.4403C123.713 33.5125 123.749 33.5843 123.785 33.6925L123.822 33.7647C123.894 34.0887 124.039 35.061 124.039 35.3136C124.039 38.2674 122.843 39.5637 121.575 40.5365C120.343 41.437 118.931 42.0132 117.337 42.1576C117.3 42.1576 117.156 42.1576 116.829 42.1935C116.648 42.1935 116.395 42.2298 116.358 42.2298H116.322C116.032 42.3017 115.308 42.662 115.308 43.274C115.308 43.8143 115.634 44.463 117.192 44.5712C117.517 44.6071 117.843 44.6071 118.206 44.6434C120.271 44.787 122.843 44.9674 124.039 45.3636C125.705 45.9756 126.756 47.4527 126.756 49.2179C126.756 51.884 124.836 54.3694 121.648 55.9179C120.09 56.6026 118.532 56.9629 116.829 56.9629ZM137.479 31.8555C136.718 31.8555 136.03 32.035 135.523 32.3953C134.11 33.26 133.385 34.9892 133.385 37.5105C133.385 42.2298 135.776 45.5439 139.182 45.5439C140.196 45.5439 140.993 45.2554 141.681 44.6793C142.732 43.8143 143.276 42.0854 143.276 39.6719C143.276 34.9892 140.921 31.8551 137.479 31.8551L137.479 31.8555ZM138.131 47.2728C131.973 47.2728 129.763 42.7701 129.763 38.5555C129.763 35.6017 130.958 33.3322 133.349 31.711C135.052 30.6665 137.081 30.0903 138.892 30.0903C143.602 30.0903 146.898 33.4403 146.898 38.2674C146.898 41.5452 145.594 44.1386 143.094 45.7239C141.899 46.5163 139.834 47.2728 138.131 47.2728H138.131ZM73.5735 31.8551C72.8126 31.8551 72.1245 32.035 71.6169 32.3953C70.2044 33.26 69.4797 34.9892 69.4797 37.5105C69.4797 42.2298 71.8705 45.5439 75.2761 45.5439C76.2905 45.5439 77.0874 45.2554 77.776 44.6793C78.8262 43.8143 79.3699 42.0854 79.3699 39.6719C79.3699 34.9892 77.0513 31.8551 73.5735 31.8551ZM74.2255 47.2728C68.0668 47.2728 65.857 42.7701 65.857 38.5555C65.857 35.6017 67.0524 33.3322 69.4432 31.711C71.1462 30.6665 73.175 30.0903 74.9864 30.0903C79.6961 30.0903 82.9926 33.4403 82.9926 38.2674C82.9926 41.5452 81.6884 44.1386 79.1885 45.7239C78.0292 46.5163 75.9643 47.2728 74.2255 47.2728ZM32.8172 46.9125C32.7446 46.8047 32.6719 46.4804 32.7084 46.0842C32.7084 45.7957 32.7811 45.6157 32.8172 45.5439C33.578 45.4354 33.9765 45.3273 34.4111 45.2195C35.1358 45.0392 35.4255 44.6434 35.4616 43.7428C35.5707 41.5815 35.5707 37.4746 35.5342 34.6289V34.5567C35.5342 34.2327 35.5342 33.8361 35.1358 33.548C34.5559 33.1881 33.8677 32.8641 32.9621 32.6112C32.6362 32.5038 32.4187 32.3235 32.4548 32.1076C32.4548 31.8914 32.6723 31.6392 33.1434 31.567C34.3388 31.4589 37.4539 30.7028 38.6858 30.1621C38.7585 30.234 38.8672 30.4506 38.8672 30.7387L38.8311 31.1345C38.7946 31.5311 38.7585 31.9995 38.7585 32.4675C38.7585 32.6116 38.9037 32.7197 39.0482 32.7197C39.1208 32.7197 39.1934 32.6838 39.2657 32.6475C41.5842 30.8464 43.6853 30.198 44.772 30.198C46.5476 30.198 47.9244 31.0268 48.9749 32.7556C49.0472 32.8641 49.1198 32.9001 49.2285 32.9001C49.3008 32.9001 49.4091 32.8641 49.4456 32.7919C51.5832 31.1708 53.7208 30.198 55.1333 30.198C58.5024 30.198 60.4951 32.6838 60.4951 36.8984C60.4951 38.087 60.4951 39.6359 60.459 41.0412C60.459 42.3017 60.4229 43.4544 60.4229 44.2831C60.4229 44.4626 60.6761 45.0392 61.0746 45.1473C61.5818 45.3995 62.2704 45.5076 63.176 45.6517H63.2122C63.2848 45.9038 63.1399 46.8403 62.9951 47.0206C62.7776 47.0206 62.4513 47.0206 62.0894 46.9847C61.1723 46.9371 60.2542 46.913 59.3358 46.9125C57.0899 46.9125 55.9306 46.9484 54.8071 47.0206C54.7352 46.7325 54.6987 45.8679 54.8071 45.6517C55.4595 45.5439 55.7854 45.4354 56.1842 45.3277C56.9089 45.1114 57.0899 44.787 57.1264 43.8506C57.1264 43.1663 57.2709 37.3305 57.0534 35.9257C56.8363 34.4849 55.7492 32.7919 53.3581 32.7919C52.4524 32.7919 51.0399 33.1522 49.6631 34.1964C49.5909 34.2686 49.5179 34.4486 49.5179 34.5567V34.593C49.6631 35.3491 49.6631 36.2141 49.6631 37.5468V39.8881C49.6631 41.5092 49.6266 43.0222 49.6631 44.1746C49.6631 44.9674 50.1342 45.1473 50.5327 45.2917C50.7502 45.3273 50.8946 45.3636 51.076 45.3995C51.4018 45.4717 51.7281 45.5439 52.2353 45.6517C52.3079 45.7961 52.3079 46.2641 52.1992 46.6603C52.1627 46.8766 52.09 46.9843 52.0539 47.0206C50.8224 46.9847 49.5544 46.9484 47.7069 46.9484C47.1636 46.9484 46.2214 46.9847 45.4244 46.9847C44.772 46.9847 44.1564 47.0206 43.7945 47.0206C43.7579 46.9484 43.6853 46.6966 43.6853 46.3C43.6853 45.976 43.7579 45.7239 43.8306 45.6517C44.0116 45.6157 44.1564 45.5798 44.3378 45.5798C44.772 45.5076 45.1347 45.4354 45.4967 45.3636C46.113 45.1836 46.3301 44.8592 46.3662 44.0668C46.475 42.2657 46.5837 37.1147 46.3301 35.8175C45.8955 33.7284 44.7001 32.6838 42.7796 32.6838C41.6569 32.6838 40.2436 33.224 39.0847 34.0891C38.9033 34.2327 38.7585 34.5926 38.7585 34.917V37.0425C38.7585 39.636 38.7585 42.8782 38.7946 44.2831C38.8311 44.7148 38.9756 45.2195 39.809 45.3995C39.9904 45.4354 40.2801 45.5076 40.6424 45.5439L41.2941 45.6517C41.3671 45.8679 41.3306 46.7325 41.1858 47.0206C40.8234 47.0206 40.3888 46.9847 39.8812 46.9847C39.1208 46.9484 38.1425 46.9125 37.0559 46.9125C35.7878 46.9125 34.8822 46.9484 34.1575 46.9847C33.6502 46.9125 33.2518 46.9125 32.8172 46.9125Z" fill="#442D22"/>
<path fill-rule="evenodd" clip-rule="evenodd" d="M13.7611 55.558L12.2759 55.0532C12.2759 55.0532 12.4573 47.5249 9.73988 46.9847C7.92892 44.8951 10.0304 -41.6301 16.5511 46.6962C16.5511 46.6962 14.3048 47.8126 13.9063 49.7222C13.4713 51.5955 13.7611 55.558 13.7611 55.558Z" fill="white"/>
<path fill-rule="evenodd" clip-rule="evenodd" d="M13.7611 55.558L12.2759 55.0532C12.2759 55.0532 12.4573 47.5249 9.73988 46.9847C7.92892 44.8951 10.0304 -41.6301 16.5511 46.6962C16.5511 46.6962 14.3048 47.8126 13.9063 49.7222C13.4713 51.5955 13.7611 55.558 13.7611 55.558Z" fill="#A6A385"/>
<path fill-rule="evenodd" clip-rule="evenodd" d="M14.5584 48.2815C14.5584 48.2815 27.5645 39.78 24.5208 22.0928C21.5867 9.23346 14.6671 5.01884 13.9063 3.39771C13.0733 2.245 12.2759 0.228058 12.2759 0.228058L12.8197 35.9975C12.8197 36.0338 11.6965 46.9484 14.5588 48.2818" fill="white"/>
<path fill-rule="evenodd" clip-rule="evenodd" d="M14.5584 48.2815C14.5584 48.2815 27.5645 39.78 24.5208 22.0928C21.5867 9.23346 14.6671 5.01884 13.9063 3.39771C13.0733 2.245 12.2759 0.228058 12.2759 0.228058L12.8197 35.9975C12.8197 36.0338 11.6965 46.9484 14.5588 48.2818" fill="#499D4A"/>
<path fill-rule="evenodd" clip-rule="evenodd" d="M11.5155 48.7495C11.5155 48.7495 -0.693668 40.4643 0.031031 25.8757C0.719221 11.2867 9.34141 4.11829 11.0079 2.82154C12.095 1.66883 12.1311 1.23633 12.2037 0.0836182C12.9645 1.70475 12.8197 24.3268 12.928 26.9921C13.2538 37.2583 12.3486 46.8047 11.5155 48.7495Z" fill="white"/>
<path fill-rule="evenodd" clip-rule="evenodd" d="M11.5155 48.7495C11.5155 48.7495 -0.693668 40.4643 0.031031 25.8757C0.719221 11.2867 9.34141 4.11829 11.0079 2.82154C12.095 1.66883 12.1311 1.23633 12.2037 0.0836182C12.9645 1.70475 12.8197 24.3268 12.928 26.9921C13.2538 37.2583 12.3486 46.8047 11.5155 48.7495Z" fill="#58AA50"/>
</g>
<defs>
<clipPath id="clip0">
<rect width="201" height="57" fill="white"/>
</clipPath>
</defs>
</svg>
