<svg width="166" height="115" viewBox="0 0 166 115" fill="none" xmlns="http://www.w3.org/2000/svg">
<g clip-path="url(#clip0)">
<path d="M50.8132 92.8733H46.3191C46.1602 85.2923 45.7225 78.1652 45.0069 71.4868H44.967L38.1247 92.8733H34.7031L27.9016 71.4868H27.8625C27.3579 77.8988 27.0401 85.0276 26.9081 92.8733H22.8117C23.0757 83.3326 23.7392 74.3882 24.7996 66.0391H30.3696L36.8524 85.7566H36.8924L43.4151 66.0391H48.7446C49.9118 75.8185 50.6013 84.7638 50.8132 92.8733ZM70.3032 73.0751C68.4734 82.9985 66.0592 90.2089 63.0632 94.7097C60.7288 98.1743 58.1713 99.9084 55.3863 99.9084C54.6438 99.9084 53.7276 99.6845 52.6421 99.2401V96.8474C53.1727 96.9237 53.7954 96.9671 54.5109 96.9671C55.8118 96.9671 56.8574 96.6095 57.6546 95.8927C58.6082 95.0196 59.0849 94.038 59.0849 92.9523C59.0849 92.2076 58.7132 90.6854 57.9716 88.3802L53.0398 73.0742H57.4549L60.9946 84.5216C61.7901 87.1209 62.1218 88.9357 61.9889 89.9693C63.9246 84.8028 65.2768 79.1694 66.0471 73.0733H70.3032V73.0751Z" fill="#CECECE"/>
<path d="M130.125 92.8733H117.359V66.0391H121.653V89.5701H130.125V92.8733ZM114.017 93.5216L109.081 91.0872C109.519 90.7279 109.937 90.3391 110.314 89.8886C112.412 87.4256 113.459 83.7831 113.459 78.9585C113.459 70.0809 109.973 65.6399 102.998 65.6399C99.5786 65.6399 96.9108 66.7664 95.0029 69.0203C92.9065 71.4851 91.8601 75.1146 91.8601 79.9131C91.8601 84.6301 92.7876 88.0904 94.6434 90.2853C96.3412 92.2736 98.9004 93.2691 102.323 93.2691C103.599 93.2691 104.771 93.1128 105.838 92.7978L112.265 96.5366L114.017 93.5216ZM98.0268 87.5037C96.9395 85.7558 96.3959 82.949 96.3959 79.0791C96.3959 72.3226 98.4497 68.9405 102.562 68.9405C104.711 68.9405 106.286 69.7493 107.294 71.3636C108.379 73.1141 108.925 75.8957 108.925 79.7118C108.925 86.5238 106.87 89.9303 102.761 89.9303C100.61 89.9312 99.035 89.1249 98.0268 87.5037ZM89.9886 85.4355C89.9886 87.7111 89.1532 89.5779 87.4841 91.0403C85.8133 92.4966 83.5727 93.2265 80.7651 93.2265C78.139 93.2265 75.5928 92.3881 73.1282 90.7201L74.2823 88.4158C76.403 89.4773 78.3231 90.0049 80.0469 90.0049C81.6648 90.0049 82.9292 89.6465 83.8463 88.9357C84.7625 88.2223 85.3087 87.2216 85.3087 85.9562C85.3087 84.3619 84.1962 82.9994 82.1555 81.8581C80.2736 80.8253 76.5098 78.666 76.5098 78.666C74.4699 77.1802 73.4486 75.585 73.4486 72.957C73.4486 70.7821 74.2103 69.0264 75.7343 67.6907C77.2602 66.3498 79.2289 65.6815 81.6422 65.6815C84.1346 65.6815 86.4003 66.349 88.4411 67.6699L87.4059 69.975C85.6604 69.2338 83.9375 68.8632 82.238 68.8632C80.8615 68.8632 79.7986 69.1939 79.0595 69.8578C78.3144 70.5191 77.855 71.3653 77.855 72.4033C77.855 73.9898 78.9909 75.3698 81.0873 76.5336C82.9944 77.5681 86.8519 79.7647 86.8519 79.7647C88.9439 81.248 89.9886 82.8284 89.9886 85.4355Z" fill="#CECECE"/>
<path d="M135.516 57.0513C132.919 56.9854 130.909 57.2466 129.221 57.96C128.734 58.1544 127.96 58.1544 127.892 58.7697C128.155 59.0301 128.185 59.4501 128.414 59.8095C128.803 60.4578 129.481 61.33 130.1 61.7848C130.78 62.3055 131.463 62.821 132.178 63.2749C133.44 64.0551 134.87 64.5091 136.1 65.2867C136.817 65.7388 137.529 66.3238 138.246 66.8107C138.599 67.0702 138.824 67.4911 139.282 67.6534V67.5545C139.053 67.2629 138.988 66.8411 138.763 66.5165L137.788 65.5774C136.847 64.3138 135.677 63.2107 134.415 62.3046C133.377 61.5895 131.105 60.6175 130.684 59.4215L130.618 59.3555C131.332 59.2887 132.178 59.0301 132.857 58.8313C133.96 58.5406 134.967 58.6066 136.099 58.3158C136.62 58.1856 137.137 58.0225 137.66 57.8619V57.5694C137.073 56.9854 136.654 56.2095 136.037 55.6575C134.385 54.2316 132.565 52.8369 130.684 51.6696C129.676 51.0195 128.381 50.6012 127.308 50.0483C126.922 49.8531 126.27 49.7567 126.043 49.4321C125.461 48.7187 125.134 47.7797 124.712 46.9352C123.774 45.1535 122.863 43.1764 122.053 41.2922C121.468 40.0286 121.112 38.7667 120.398 37.5976C117.055 32.0866 113.424 28.7487 107.843 25.4724C106.644 24.7903 105.217 24.4995 103.693 24.1419L101.259 24.0135C100.74 23.7861 100.22 23.169 99.7662 22.8774C97.9147 21.711 93.148 19.1828 91.7863 22.5207C90.9092 24.6306 93.0837 26.7048 93.8305 27.7749C94.382 28.5178 95.0967 29.3631 95.4823 30.2067C95.7107 30.7578 95.7749 31.3428 96.0033 31.9251C96.5227 33.3519 97.0081 34.9393 97.6907 36.2706C98.0467 36.9493 98.4349 37.6627 98.89 38.2772C99.1505 38.6365 99.6038 38.7953 99.7028 39.3812C99.2504 40.0269 99.2148 41.0015 98.9551 41.8121C97.7879 45.4754 98.2439 50.0136 99.8982 52.7058C100.416 53.5164 101.651 55.3008 103.302 54.6169C104.765 54.0337 104.441 52.1859 104.861 50.5656C104.958 50.1742 104.894 49.9173 105.089 49.6604V49.7238C105.541 50.6307 105.998 51.5047 106.417 52.4142C107.424 54.0016 109.176 55.6558 110.636 56.7554C111.414 57.3421 112.029 58.3453 113.003 58.7038V58.6066H112.938C112.741 58.3158 112.453 58.1856 112.194 57.96C111.609 57.3759 110.961 56.6625 110.507 56.0151C109.147 54.1986 107.943 52.1877 106.875 50.1126C106.352 49.1058 105.902 48.0053 105.48 47.0003C105.284 46.6124 105.284 46.0274 104.959 45.8321C104.47 46.5447 103.759 47.1617 103.403 48.0348C102.786 49.4313 102.721 51.1488 102.492 52.9349L102.365 52.9974C101.331 52.7379 100.972 51.6695 100.579 50.7626C99.6073 48.4592 99.444 44.762 100.287 42.1046C100.513 41.425 101.49 39.2848 101.1 38.6374C100.905 38.0168 100.255 37.6636 99.8991 37.175C99.4805 36.5605 99.022 35.7829 98.7302 35.1007C97.9521 33.286 97.5604 31.2751 96.7224 29.4612C96.3307 28.6159 95.6508 27.7411 95.1002 26.9626C94.4819 26.0877 93.8019 25.4715 93.313 24.4344C93.1514 24.0777 92.9248 23.4945 93.1844 23.1066C93.2478 22.8462 93.3798 22.749 93.6386 22.6839C94.0589 22.3289 95.26 22.7802 95.6812 22.9755C96.8839 23.4615 97.8896 23.9154 98.8935 24.5958C99.3476 24.9213 99.8348 25.5375 100.418 25.6998H101.1C102.136 25.9254 103.304 25.7623 104.279 26.0556C105.998 26.6076 107.555 27.4173 108.952 28.2913C113.201 30.9844 116.705 34.8109 119.07 39.3812C119.459 40.1258 119.624 40.808 119.978 41.5847C120.661 43.1747 121.506 44.7959 122.185 46.352C122.866 47.8752 123.516 49.4304 124.489 50.6958C124.975 51.3762 126.925 51.7329 127.8 52.0896C128.447 52.3804 129.454 52.639 130.038 52.9957C131.141 53.6752 132.241 54.4555 133.279 55.2027C133.795 55.5915 135.419 56.4021 135.516 57.0513ZM102.424 28.8763C101.976 28.8716 101.529 28.9265 101.096 29.0394V29.1045H101.158C101.42 29.6226 101.874 29.9819 102.198 30.4341C102.459 30.954 102.686 31.4695 102.942 31.9885L103.005 31.9243C103.462 31.6006 103.69 31.0816 103.69 30.3031C103.493 30.0739 103.462 29.85 103.298 29.6226C103.107 29.298 102.686 29.1366 102.424 28.8763Z" fill="#CECECE"/>
<path d="M138.606 92.869H139.278V89.5814H138.269L137.447 91.8249L136.553 89.5814H135.583V92.869H136.217V90.3677H136.253L137.189 92.869H137.673L138.606 90.3677V92.869ZM133.191 92.869H133.902V90.1386H134.833V89.5805H132.221V90.1386H133.189L133.191 92.869Z" fill="#CECECE"/>
</g>
<defs>
<clipPath id="clip0">
<rect width="166" height="115" fill="white"/>
</clipPath>
</defs>
</svg>
