<svg width="92" height="104" viewBox="0 0 92 104" fill="none" xmlns="http://www.w3.org/2000/svg">
<path d="M46 103.807C44.5714 103.807 43.2381 103.426 42 102.758L29.3333 95.224C27.4286 94.175 28.381 93.7935 28.9524 93.6028C31.5238 92.7445 32 92.5537 34.6667 91.0278C34.9524 90.8371 35.3333 90.9325 35.619 91.1232L45.3333 96.9406C45.7143 97.1313 46.1905 97.1313 46.4762 96.9406L84.4762 74.9108C84.8571 74.7201 85.0476 74.3386 85.0476 73.8618V29.8976C85.0476 29.4207 84.8571 29.0393 84.4762 28.8485L46.4762 6.91411C46.0952 6.72338 45.619 6.72338 45.3333 6.91411L7.33333 28.8485C6.95238 29.0393 6.7619 29.5161 6.7619 29.8976V73.8618C6.7619 74.2432 6.95238 74.7201 7.33333 74.9108L17.7143 80.9189C23.3333 83.78 26.8571 80.4421 26.8571 77.1043V33.7123C26.8571 33.1401 27.3333 32.5678 28 32.5678H32.8571C33.4286 32.5678 34 33.0447 34 33.7123V77.1043C34 84.6383 29.9048 89.0251 22.7619 89.0251C20.5714 89.0251 18.8571 89.0251 14 86.641L4 80.9189C1.52381 79.4884 0 76.8182 0 73.9572V29.9929C0 27.1319 1.52381 24.4616 4 23.0311L42 1.00135C44.381 -0.333785 47.619 -0.333785 50 1.00135L88 23.0311C90.4762 24.4616 92 27.1319 92 29.9929V73.9572C92 76.8182 90.4762 79.4884 88 80.9189L50 102.949C48.7619 103.521 47.3333 103.807 46 103.807ZM57.7143 73.5757C41.0476 73.5757 37.619 65.9463 37.619 59.4614C37.619 58.8892 38.0952 58.317 38.7619 58.317H43.7143C44.2857 58.317 44.7619 58.6984 44.7619 59.2706C45.5238 64.3251 47.7143 66.8046 57.8095 66.8046C65.8095 66.8046 69.2381 64.9926 69.2381 60.7011C69.2381 58.2216 68.2857 56.4096 55.8095 55.1698C45.4286 54.1208 38.9524 51.832 38.9524 43.5351C38.9524 35.8103 45.4286 31.2327 56.2857 31.2327C68.4762 31.2327 74.4762 35.4289 75.2381 44.5841C75.2381 44.8702 75.1429 45.1563 74.9524 45.4424C74.7619 45.6331 74.4762 45.8239 74.1905 45.8239H69.2381C68.7619 45.8239 68.2857 45.4424 68.1905 44.9656C67.0476 39.7204 64.0952 38.0038 56.2857 38.0038C47.5238 38.0038 46.4762 41.0555 46.4762 43.3443C46.4762 46.11 47.7143 46.9683 59.5238 48.4941C71.2381 50.02 76.7619 52.2135 76.7619 60.415C76.6667 68.8073 69.8095 73.5757 57.7143 73.5757Z" fill="#CECECE"/>
</svg>
