<svg width="88" height="88" viewBox="0 0 88 88" fill="none" xmlns="http://www.w3.org/2000/svg">
<path d="M65.2541 64.0612C65.8144 59.3965 65.6459 58.7159 69.1178 59.4687L70.0012 59.5478C72.6722 59.6681 76.1647 59.1181 78.2512 58.1659C82.6684 56.1172 85.2878 52.6934 80.9325 53.594C70.9981 55.6428 70.2762 52.2775 70.2762 52.2775C80.7709 36.7056 85.1606 16.94 81.369 12.1034C71.0428 -1.09658 53.1644 5.14592 52.8653 5.31092L52.7691 5.32811C50.8097 4.91561 48.6441 4.67498 46.1347 4.64061C41.6384 4.57186 38.2284 5.81967 35.6366 7.78248C35.6366 7.78248 3.74687 -5.35564 5.22843 24.3065C5.54468 30.6178 14.2691 72.0878 24.6847 59.5409C28.4969 54.9553 32.175 51.0812 32.175 51.0812C33.9969 52.2947 36.1866 52.9134 38.4794 52.69L38.6581 52.5387C38.6052 53.1329 38.6295 53.7314 38.7303 54.3194C36.0491 57.3169 36.8397 57.8428 31.4772 58.9462C26.0528 60.0634 29.2428 62.0537 31.3191 62.5762C33.8422 63.2087 39.6791 64.1025 43.6253 58.5819L43.4672 59.2109C44.5191 60.0531 44.4469 65.2609 44.6016 68.9803C44.7562 72.6997 45.0003 76.175 45.76 78.2203C46.5197 80.2656 47.41 85.5422 54.4569 84.064C60.3453 82.8025 64.8484 80.984 65.2609 64.0922" fill="#CECECE"/>
<path d="M65.2541 64.0612C65.8144 59.3965 65.6459 58.7159 69.1178 59.4687L70.0012 59.5478C72.6722 59.6681 76.1647 59.1181 78.2512 58.1659C82.6684 56.1172 85.2878 52.6934 80.9325 53.594C70.9981 55.6428 70.2762 52.2775 70.2762 52.2775C80.7709 36.7056 85.1606 16.94 81.3691 12.1034C71.0428 -1.09658 53.1644 5.14592 52.8653 5.31092L52.7691 5.32811C50.8097 4.91561 48.644 4.67498 46.1347 4.64061C41.6384 4.57186 38.2284 5.81967 35.6366 7.78248C35.6366 7.78248 3.74687 -5.35564 5.22843 24.3065C5.54468 30.6178 14.2691 72.0878 24.6847 59.5409C28.4969 54.9553 32.175 51.0812 32.175 51.0812C33.9969 52.2947 36.1866 52.9134 38.4794 52.69L38.6581 52.5387C38.6052 53.1329 38.6295 53.7314 38.7303 54.3194C36.0491 57.3169 36.8397 57.8428 31.4772 58.9462C26.0528 60.0634 29.2428 62.0537 31.3191 62.5762C33.8422 63.2087 39.6791 64.1025 43.6253 58.5819L43.4672 59.2109C44.5191 60.0531 44.4469 65.2609 44.6016 68.9803C44.7562 72.6997 45.0003 76.175 45.76 78.2203C46.5197 80.2656 47.41 85.5422 54.4569 84.064C60.3453 82.8025 64.8484 80.984 65.2609 64.0922" stroke="#CECECE" stroke-width="5.3725"/>
<path d="M80.9016 53.625C70.9672 55.6737 70.2453 52.3084 70.2453 52.3084C80.74 36.7365 85.1297 16.9709 81.3416 12.1344C71.0153 -1.06564 53.1369 5.1803 52.8378 5.34186L52.7416 5.35905C50.5579 4.92089 48.3377 4.68956 46.1106 4.66811C41.6144 4.59936 38.2044 5.84718 35.6125 7.80999C35.6125 7.80999 3.71938 -5.32813 5.20438 24.334C5.52063 30.6453 14.245 72.1153 24.6606 59.5684C28.4969 54.9553 32.175 51.0812 32.175 51.0812C33.9969 52.2947 36.1866 52.9134 38.4794 52.69L38.6581 52.5387C38.6056 53.1329 38.6299 53.7314 38.7303 54.3194C36.0491 57.3169 36.8397 57.8428 31.4772 58.9462C26.0528 60.0634 29.2428 62.0537 31.3191 62.5762C33.8422 63.2087 39.6791 64.1025 43.6253 58.5819L43.4672 59.2109C44.5191 60.0531 45.2547 64.6869 45.1309 68.8875C45.0072 73.0881 44.9247 75.9687 45.7497 78.2237C46.5747 80.4787 47.3997 85.5456 54.4466 84.0675C60.335 82.8059 63.3841 79.53 63.8137 74.0781C64.1162 70.2006 64.7969 70.7712 64.845 67.3062L65.395 65.6631C66.0241 60.4037 65.4981 58.709 69.1247 59.4997L70.0081 59.5787C72.6791 59.699 76.175 59.149 78.2237 58.1969C82.6409 56.1481 85.2603 52.7244 80.905 53.625H80.9016Z" fill="#CECECE"/>
<path d="M52.8344 5.18031C51.7344 5.52406 70.5856 -1.71188 81.3038 11.9797C85.085 16.8162 80.7022 36.5819 70.2075 52.1537M44.0481 56.6053C43.7731 66.3884 44.1169 76.2403 45.0725 78.6053C46.0281 80.9703 48.0803 85.6522 55.1306 84.1466C61.0191 82.885 63.1641 80.4409 64.0922 75.0475L66.2681 57.8016L44.0481 56.6053ZM35.5987 7.5625C35.5987 7.5625 3.685 -5.48625 5.17 24.1759C5.48625 30.4872 14.2106 71.9572 24.6262 59.4103C28.4281 54.8281 31.8656 51.2428 31.8656 51.2428L35.5987 7.5625Z" stroke="white" stroke-width="1.79" stroke-linecap="round" stroke-linejoin="round"/>
<path d="M70.2109 52.1469C70.2109 52.1469 70.8984 55.5156 80.8672 53.46C85.2225 52.5594 82.5997 55.9831 78.1859 58.0319C74.5628 59.7162 66.4366 60.1459 66.3025 57.8256C65.9587 51.8272 70.5787 53.6491 70.2453 52.1469C69.9428 50.7925 67.8734 49.4656 66.5122 46.1519C65.3194 43.2644 50.1497 21.0925 70.7197 24.3822C71.4759 24.2275 65.3572 4.78843 46.1072 4.50656C26.8572 4.22468 27.4656 28.1737 27.4656 28.1737" stroke="white" stroke-width="1.79" stroke-linecap="round" stroke-linejoin="bevel"/>
<path d="M38.6616 54.2025C35.9803 57.2 36.7709 57.7259 31.4084 58.8294C25.9841 59.9466 29.1741 61.9369 31.2503 62.4594C33.7734 63.0919 39.6103 63.9856 43.5566 58.4616C44.7597 56.7772 43.5497 54.0959 41.8997 53.4153C41.1022 53.0853 40.0366 52.6728 38.6684 54.2059L38.6616 54.2025Z" stroke="white" stroke-width="1.79" stroke-linejoin="round"/>
<path d="M38.4862 54.1509C38.2112 52.3875 39.0637 50.2941 39.9747 47.8397C41.3428 44.1616 44.4984 40.4834 41.9753 28.8062C40.095 20.1094 27.4691 26.9947 27.4691 28.1737C27.4691 29.3528 28.0397 34.155 27.2628 39.7409C26.2419 47.0353 31.9034 53.2022 38.4209 52.5731" stroke="white" stroke-width="1.79" stroke-linecap="round" stroke-linejoin="round"/>
<path d="M35.4819 27.9984C35.4234 28.4006 36.2209 29.4766 37.2556 29.6209C38.2903 29.7653 39.1737 28.9266 39.2322 28.5209C39.2906 28.1153 38.4931 27.6753 37.4584 27.5309C36.4237 27.3866 35.5334 27.5997 35.4819 27.9984Z" fill="white" stroke="white" stroke-width="0.5975"/>
<path d="M66.9831 27.1769C67.0381 27.5791 66.2441 28.655 65.2094 28.7994C64.1747 28.9438 63.2844 28.105 63.2328 27.6994C63.1812 27.2938 63.9719 26.8538 65.0066 26.7094C66.0412 26.565 66.9316 26.7781 66.9831 27.1769Z" fill="white" stroke="white" stroke-width="0.2975"/>
<path d="M70.6819 24.3891C70.8538 27.5516 70.0013 29.7 69.8913 33.0653C69.7331 37.9534 72.2219 43.5497 68.4716 49.1528" stroke="white" stroke-width="1.79" stroke-linecap="round" stroke-linejoin="round"/>
</svg>
